<mxfile host="Electron" modified="2025-03-13T17:12:31.747Z" agent="Mozilla/5.0 (Windows NT 10.0; Win64; x64) AppleWebKit/537.36 (KHTML, like Gecko) draw.io/24.2.5 Chrome/120.0.6099.109 Electron/28.1.0 Safari/537.36" etag="0C0Dx8c4XyAMUgdj5EcI" version="24.2.5" type="device">
  <diagram id="C5RBs43oDa-KdzZeNtuy" name="Page-1">
    <mxGraphModel dx="1687" dy="993" grid="1" gridSize="10" guides="1" tooltips="1" connect="1" arrows="1" fold="1" page="1" pageScale="1" pageWidth="827" pageHeight="1169" math="0" shadow="0">
      <root>
        <mxCell id="WIyWlLk6GJQsqaUBKTNV-0" />
        <mxCell id="WIyWlLk6GJQsqaUBKTNV-1" parent="WIyWlLk6GJQsqaUBKTNV-0" />
        <mxCell id="m4rX2UfZEh0AO8BOlS4y-53" style="edgeStyle=orthogonalEdgeStyle;rounded=0;orthogonalLoop=1;jettySize=auto;html=1;exitX=0.5;exitY=1;exitDx=0;exitDy=0;entryX=0.5;entryY=0;entryDx=0;entryDy=0;" edge="1" parent="WIyWlLk6GJQsqaUBKTNV-1" source="WIyWlLk6GJQsqaUBKTNV-3" target="m4rX2UfZEh0AO8BOlS4y-51">
          <mxGeometry relative="1" as="geometry" />
        </mxCell>
        <mxCell id="WIyWlLk6GJQsqaUBKTNV-3" value="Generate initial sample set using Latin hypercube" style="rounded=1;whiteSpace=wrap;html=1;fontSize=12;glass=0;strokeWidth=1;shadow=0;" parent="WIyWlLk6GJQsqaUBKTNV-1" vertex="1">
          <mxGeometry x="260" y="300" width="260" height="40" as="geometry" />
        </mxCell>
        <mxCell id="KJ9ePcK7zbGUT8MwdRm9-21" style="edgeStyle=orthogonalEdgeStyle;rounded=0;orthogonalLoop=1;jettySize=auto;html=1;exitX=0.5;exitY=1;exitDx=0;exitDy=0;entryX=0.5;entryY=0;entryDx=0;entryDy=0;" parent="WIyWlLk6GJQsqaUBKTNV-1" source="KJ9ePcK7zbGUT8MwdRm9-1" target="KJ9ePcK7zbGUT8MwdRm9-2" edge="1">
          <mxGeometry relative="1" as="geometry" />
        </mxCell>
        <mxCell id="KJ9ePcK7zbGUT8MwdRm9-1" value="Dimensionalise Latin hypercube variables" style="rounded=1;whiteSpace=wrap;html=1;fontSize=12;glass=0;strokeWidth=1;shadow=0;" parent="WIyWlLk6GJQsqaUBKTNV-1" vertex="1">
          <mxGeometry x="260" y="480" width="260" height="40" as="geometry" />
        </mxCell>
        <mxCell id="KJ9ePcK7zbGUT8MwdRm9-2" value="Calculate Greenwood parameters using dimensionalised variables" style="rounded=1;whiteSpace=wrap;html=1;fontSize=12;glass=0;strokeWidth=1;shadow=0;" parent="WIyWlLk6GJQsqaUBKTNV-1" vertex="1">
          <mxGeometry x="260" y="540" width="260" height="40" as="geometry" />
        </mxCell>
        <mxCell id="m4rX2UfZEh0AO8BOlS4y-4" style="edgeStyle=orthogonalEdgeStyle;rounded=0;orthogonalLoop=1;jettySize=auto;html=1;exitX=0.5;exitY=1;exitDx=0;exitDy=0;entryX=0.5;entryY=0;entryDx=0;entryDy=0;" edge="1" parent="WIyWlLk6GJQsqaUBKTNV-1" source="KJ9ePcK7zbGUT8MwdRm9-7" target="m4rX2UfZEh0AO8BOlS4y-2">
          <mxGeometry relative="1" as="geometry" />
        </mxCell>
        <mxCell id="KJ9ePcK7zbGUT8MwdRm9-7" value="Define isoviscous rigid (IR) bounds in Greenwood regime chart" style="rounded=1;whiteSpace=wrap;html=1;fontSize=12;glass=0;strokeWidth=1;shadow=0;" parent="WIyWlLk6GJQsqaUBKTNV-1" vertex="1">
          <mxGeometry x="260" y="120" width="260" height="40" as="geometry" />
        </mxCell>
        <mxCell id="m4rX2UfZEh0AO8BOlS4y-33" style="edgeStyle=orthogonalEdgeStyle;rounded=0;orthogonalLoop=1;jettySize=auto;html=1;exitX=0;exitY=0.5;exitDx=0;exitDy=0;exitPerimeter=0;entryX=0.5;entryY=1;entryDx=0;entryDy=0;" edge="1" parent="WIyWlLk6GJQsqaUBKTNV-1" source="m4rX2UfZEh0AO8BOlS4y-0" target="m4rX2UfZEh0AO8BOlS4y-29">
          <mxGeometry relative="1" as="geometry" />
        </mxCell>
        <mxCell id="m4rX2UfZEh0AO8BOlS4y-35" value="NO" style="edgeLabel;html=1;align=center;verticalAlign=middle;resizable=0;points=[];fontSize=12;" vertex="1" connectable="0" parent="m4rX2UfZEh0AO8BOlS4y-33">
          <mxGeometry x="-0.4643" y="1" relative="1" as="geometry">
            <mxPoint x="8" y="-1" as="offset" />
          </mxGeometry>
        </mxCell>
        <mxCell id="m4rX2UfZEh0AO8BOlS4y-0" value="Data point within&amp;nbsp;&lt;div&gt;&lt;span style=&quot;background-color: initial;&quot;&gt;PE or PR region?&lt;/span&gt;&lt;/div&gt;" style="strokeWidth=2;html=1;shape=mxgraph.flowchart.decision;whiteSpace=wrap;" vertex="1" parent="WIyWlLk6GJQsqaUBKTNV-1">
          <mxGeometry x="310" y="600" width="160" height="100" as="geometry" />
        </mxCell>
        <mxCell id="m4rX2UfZEh0AO8BOlS4y-5" style="edgeStyle=orthogonalEdgeStyle;rounded=0;orthogonalLoop=1;jettySize=auto;html=1;exitX=0.5;exitY=1;exitDx=0;exitDy=0;entryX=0.5;entryY=0;entryDx=0;entryDy=0;" edge="1" parent="WIyWlLk6GJQsqaUBKTNV-1" source="m4rX2UfZEh0AO8BOlS4y-2" target="m4rX2UfZEh0AO8BOlS4y-3">
          <mxGeometry relative="1" as="geometry" />
        </mxCell>
        <mxCell id="m4rX2UfZEh0AO8BOlS4y-2" value="Define upper and lower limits of input variables" style="rounded=1;whiteSpace=wrap;html=1;fontSize=12;glass=0;strokeWidth=1;shadow=0;" vertex="1" parent="WIyWlLk6GJQsqaUBKTNV-1">
          <mxGeometry x="260" y="180" width="260" height="40" as="geometry" />
        </mxCell>
        <mxCell id="m4rX2UfZEh0AO8BOlS4y-6" style="edgeStyle=orthogonalEdgeStyle;rounded=0;orthogonalLoop=1;jettySize=auto;html=1;exitX=0.5;exitY=1;exitDx=0;exitDy=0;" edge="1" parent="WIyWlLk6GJQsqaUBKTNV-1" source="m4rX2UfZEh0AO8BOlS4y-3" target="WIyWlLk6GJQsqaUBKTNV-3">
          <mxGeometry relative="1" as="geometry" />
        </mxCell>
        <mxCell id="m4rX2UfZEh0AO8BOlS4y-3" value="Define total number of data points" style="rounded=1;whiteSpace=wrap;html=1;fontSize=12;glass=0;strokeWidth=1;shadow=0;" vertex="1" parent="WIyWlLk6GJQsqaUBKTNV-1">
          <mxGeometry x="260" y="240" width="260" height="40" as="geometry" />
        </mxCell>
        <mxCell id="m4rX2UfZEh0AO8BOlS4y-20" style="edgeStyle=orthogonalEdgeStyle;rounded=0;orthogonalLoop=1;jettySize=auto;html=1;exitX=0.5;exitY=1;exitDx=0;exitDy=0;exitPerimeter=0;entryX=0.5;entryY=0;entryDx=0;entryDy=0;" edge="1" parent="WIyWlLk6GJQsqaUBKTNV-1" source="m4rX2UfZEh0AO8BOlS4y-36" target="m4rX2UfZEh0AO8BOlS4y-21">
          <mxGeometry relative="1" as="geometry">
            <mxPoint x="390.3103448275863" y="1015" as="targetPoint" />
            <mxPoint x="390" y="990" as="sourcePoint" />
          </mxGeometry>
        </mxCell>
        <mxCell id="m4rX2UfZEh0AO8BOlS4y-23" value="YES" style="edgeLabel;html=1;align=center;verticalAlign=middle;resizable=0;points=[];fontSize=12;" vertex="1" connectable="0" parent="m4rX2UfZEh0AO8BOlS4y-20">
          <mxGeometry x="-0.1755" y="2" relative="1" as="geometry">
            <mxPoint as="offset" />
          </mxGeometry>
        </mxCell>
        <mxCell id="m4rX2UfZEh0AO8BOlS4y-34" style="edgeStyle=orthogonalEdgeStyle;rounded=0;orthogonalLoop=1;jettySize=auto;html=1;exitX=0;exitY=0.5;exitDx=0;exitDy=0;exitPerimeter=0;entryX=0.5;entryY=1;entryDx=0;entryDy=0;" edge="1" parent="WIyWlLk6GJQsqaUBKTNV-1" source="m4rX2UfZEh0AO8BOlS4y-8" target="m4rX2UfZEh0AO8BOlS4y-29">
          <mxGeometry relative="1" as="geometry" />
        </mxCell>
        <mxCell id="m4rX2UfZEh0AO8BOlS4y-42" value="NO" style="edgeLabel;html=1;align=center;verticalAlign=middle;resizable=0;points=[];fontSize=12;" vertex="1" connectable="0" parent="m4rX2UfZEh0AO8BOlS4y-34">
          <mxGeometry x="-0.6791" y="1" relative="1" as="geometry">
            <mxPoint x="-2" y="-1" as="offset" />
          </mxGeometry>
        </mxCell>
        <mxCell id="m4rX2UfZEh0AO8BOlS4y-8" value="600 MPa &amp;lt; &lt;i&gt;P&lt;/i&gt; &amp;lt; 3.5 GPa&amp;nbsp;" style="strokeWidth=2;html=1;shape=mxgraph.flowchart.decision;whiteSpace=wrap;" vertex="1" parent="WIyWlLk6GJQsqaUBKTNV-1">
          <mxGeometry x="310" y="730" width="160" height="100" as="geometry" />
        </mxCell>
        <mxCell id="m4rX2UfZEh0AO8BOlS4y-10" style="edgeStyle=orthogonalEdgeStyle;rounded=0;orthogonalLoop=1;jettySize=auto;html=1;exitX=0.5;exitY=1;exitDx=0;exitDy=0;exitPerimeter=0;entryX=0.5;entryY=0;entryDx=0;entryDy=0;entryPerimeter=0;" edge="1" parent="WIyWlLk6GJQsqaUBKTNV-1" source="m4rX2UfZEh0AO8BOlS4y-0" target="m4rX2UfZEh0AO8BOlS4y-8">
          <mxGeometry relative="1" as="geometry" />
        </mxCell>
        <mxCell id="m4rX2UfZEh0AO8BOlS4y-18" value="YES" style="edgeLabel;html=1;align=center;verticalAlign=middle;resizable=0;points=[];fontSize=12;" vertex="1" connectable="0" parent="m4rX2UfZEh0AO8BOlS4y-10">
          <mxGeometry x="-0.3186" relative="1" as="geometry">
            <mxPoint as="offset" />
          </mxGeometry>
        </mxCell>
        <mxCell id="m4rX2UfZEh0AO8BOlS4y-16" style="edgeStyle=orthogonalEdgeStyle;rounded=0;orthogonalLoop=1;jettySize=auto;html=1;exitX=0.5;exitY=1;exitDx=0;exitDy=0;entryX=0.5;entryY=0;entryDx=0;entryDy=0;entryPerimeter=0;" edge="1" parent="WIyWlLk6GJQsqaUBKTNV-1" source="KJ9ePcK7zbGUT8MwdRm9-2" target="m4rX2UfZEh0AO8BOlS4y-0">
          <mxGeometry relative="1" as="geometry" />
        </mxCell>
        <mxCell id="m4rX2UfZEh0AO8BOlS4y-57" style="edgeStyle=orthogonalEdgeStyle;rounded=0;orthogonalLoop=1;jettySize=auto;html=1;exitX=0.5;exitY=1;exitDx=0;exitDy=0;entryX=0.5;entryY=0;entryDx=0;entryDy=0;" edge="1" parent="WIyWlLk6GJQsqaUBKTNV-1" source="m4rX2UfZEh0AO8BOlS4y-21" target="m4rX2UfZEh0AO8BOlS4y-56">
          <mxGeometry relative="1" as="geometry" />
        </mxCell>
        <mxCell id="m4rX2UfZEh0AO8BOlS4y-21" value="Output input variables corresponding to constrained data points" style="rounded=1;whiteSpace=wrap;html=1;fontSize=12;glass=0;strokeWidth=1;shadow=0;" vertex="1" parent="WIyWlLk6GJQsqaUBKTNV-1">
          <mxGeometry x="260" y="990" width="260" height="40" as="geometry" />
        </mxCell>
        <mxCell id="m4rX2UfZEh0AO8BOlS4y-27" value="&lt;b&gt;Generate&lt;/b&gt;&lt;div&gt;&lt;b&gt;EHL Input&lt;/b&gt;&lt;/div&gt;&lt;div style=&quot;&quot;&gt;&lt;span style=&quot;background-color: initial;&quot;&gt;&lt;b&gt;Data&lt;/b&gt;&lt;/span&gt;&lt;/div&gt;" style="text;html=1;align=left;verticalAlign=middle;resizable=0;points=[];autosize=1;strokeColor=none;fillColor=none;" vertex="1" parent="WIyWlLk6GJQsqaUBKTNV-1">
          <mxGeometry x="610" y="545" width="80" height="60" as="geometry" />
        </mxCell>
        <mxCell id="m4rX2UfZEh0AO8BOlS4y-32" style="edgeStyle=orthogonalEdgeStyle;rounded=0;orthogonalLoop=1;jettySize=auto;html=1;exitX=1;exitY=0.5;exitDx=0;exitDy=0;entryX=0;entryY=0.5;entryDx=0;entryDy=0;" edge="1" parent="WIyWlLk6GJQsqaUBKTNV-1" source="m4rX2UfZEh0AO8BOlS4y-29" target="KJ9ePcK7zbGUT8MwdRm9-1">
          <mxGeometry relative="1" as="geometry" />
        </mxCell>
        <mxCell id="m4rX2UfZEh0AO8BOlS4y-29" value="Generate new sample variables using Latin hypercube" style="rounded=1;whiteSpace=wrap;html=1;fontSize=12;glass=0;strokeWidth=1;shadow=0;" vertex="1" parent="WIyWlLk6GJQsqaUBKTNV-1">
          <mxGeometry x="60" y="480" width="180" height="40" as="geometry" />
        </mxCell>
        <mxCell id="m4rX2UfZEh0AO8BOlS4y-39" style="edgeStyle=orthogonalEdgeStyle;rounded=0;orthogonalLoop=1;jettySize=auto;html=1;exitX=1;exitY=0.5;exitDx=0;exitDy=0;exitPerimeter=0;" edge="1" parent="WIyWlLk6GJQsqaUBKTNV-1" source="m4rX2UfZEh0AO8BOlS4y-36">
          <mxGeometry relative="1" as="geometry">
            <mxPoint x="390" y="460" as="targetPoint" />
            <Array as="points">
              <mxPoint x="550" y="910" />
              <mxPoint x="550" y="460" />
            </Array>
          </mxGeometry>
        </mxCell>
        <mxCell id="m4rX2UfZEh0AO8BOlS4y-40" value="NO" style="edgeLabel;html=1;align=center;verticalAlign=middle;resizable=0;points=[];fontSize=12;" vertex="1" connectable="0" parent="m4rX2UfZEh0AO8BOlS4y-39">
          <mxGeometry x="0.1491" y="-1" relative="1" as="geometry">
            <mxPoint y="57" as="offset" />
          </mxGeometry>
        </mxCell>
        <mxCell id="m4rX2UfZEh0AO8BOlS4y-36" value="All data points&lt;div&gt;constrained?&lt;/div&gt;" style="strokeWidth=2;html=1;shape=mxgraph.flowchart.decision;whiteSpace=wrap;" vertex="1" parent="WIyWlLk6GJQsqaUBKTNV-1">
          <mxGeometry x="310" y="860" width="160" height="100" as="geometry" />
        </mxCell>
        <mxCell id="m4rX2UfZEh0AO8BOlS4y-37" style="edgeStyle=orthogonalEdgeStyle;rounded=0;orthogonalLoop=1;jettySize=auto;html=1;exitX=0.5;exitY=1;exitDx=0;exitDy=0;exitPerimeter=0;entryX=0.5;entryY=0;entryDx=0;entryDy=0;entryPerimeter=0;" edge="1" parent="WIyWlLk6GJQsqaUBKTNV-1" source="m4rX2UfZEh0AO8BOlS4y-8" target="m4rX2UfZEh0AO8BOlS4y-36">
          <mxGeometry relative="1" as="geometry" />
        </mxCell>
        <mxCell id="m4rX2UfZEh0AO8BOlS4y-38" value="YES" style="edgeLabel;html=1;align=center;verticalAlign=middle;resizable=0;points=[];fontSize=12;" vertex="1" connectable="0" parent="m4rX2UfZEh0AO8BOlS4y-37">
          <mxGeometry x="-0.1" relative="1" as="geometry">
            <mxPoint y="-3" as="offset" />
          </mxGeometry>
        </mxCell>
        <mxCell id="m4rX2UfZEh0AO8BOlS4y-54" style="edgeStyle=orthogonalEdgeStyle;rounded=0;orthogonalLoop=1;jettySize=auto;html=1;exitX=0.5;exitY=1;exitDx=0;exitDy=0;entryX=0.5;entryY=0;entryDx=0;entryDy=0;" edge="1" parent="WIyWlLk6GJQsqaUBKTNV-1" source="m4rX2UfZEh0AO8BOlS4y-51" target="KJ9ePcK7zbGUT8MwdRm9-1">
          <mxGeometry relative="1" as="geometry">
            <Array as="points">
              <mxPoint x="390" y="460" />
              <mxPoint x="390" y="460" />
            </Array>
          </mxGeometry>
        </mxCell>
        <mxCell id="m4rX2UfZEh0AO8BOlS4y-51" value="Start iterative constraint process for each data point" style="ellipse;whiteSpace=wrap;html=1;" vertex="1" parent="WIyWlLk6GJQsqaUBKTNV-1">
          <mxGeometry x="330" y="360" width="120" height="80" as="geometry" />
        </mxCell>
        <mxCell id="m4rX2UfZEh0AO8BOlS4y-55" value="" style="shape=curlyBracket;whiteSpace=wrap;html=1;rounded=1;flipH=1;labelPosition=right;verticalLabelPosition=middle;align=left;verticalAlign=middle;strokeWidth=2;" vertex="1" parent="WIyWlLk6GJQsqaUBKTNV-1">
          <mxGeometry x="580" y="120" width="20" height="910" as="geometry" />
        </mxCell>
        <mxCell id="m4rX2UfZEh0AO8BOlS4y-56" value="Numerical EHL" style="rounded=1;whiteSpace=wrap;html=1;fontSize=12;glass=0;strokeWidth=1;shadow=0;" vertex="1" parent="WIyWlLk6GJQsqaUBKTNV-1">
          <mxGeometry x="260" y="1050" width="260" height="40" as="geometry" />
        </mxCell>
      </root>
    </mxGraphModel>
  </diagram>
</mxfile>
